<?xml version="1.0" encoding="UTF-8"?>
<svg xmlns="http://www.w3.org/2000/svg" xmlns:xlink="http://www.w3.org/1999/xlink" viewBox="0 0 24 24" width="24px" height="24px">
<defs>
<radialGradient id="radial0" gradientUnits="userSpaceOnUse" cx="34.625" cy="31.875" fx="34.625" fy="31.875" r="23.205999" gradientTransform="matrix(0.375001,0,0,0.375001,0,0)">
<stop offset="0" style="stop-color:rgb(95.686275%,91.37255%,76.47059%);stop-opacity:1;"/>
<stop offset="0.219" style="stop-color:rgb(97.254902%,93.333334%,80.392158%);stop-opacity:1;"/>
<stop offset="0.644" style="stop-color:rgb(99.215686%,95.686275%,86.274511%);stop-opacity:1;"/>
<stop offset="1" style="stop-color:rgb(100%,96.470588%,88.235295%);stop-opacity:1;"/>
</radialGradient>
<linearGradient id="linear0" gradientUnits="userSpaceOnUse" x1="0.365" y1="32.5" x2="64" y2="32.5" gradientTransform="matrix(0.375001,0,0,0.375001,0,0)">
<stop offset="0.053" style="stop-color:rgb(36.470589%,41.960785%,47.450981%);stop-opacity:1;"/>
<stop offset="1" style="stop-color:rgb(2.745098%,2.745098%,7.058824%);stop-opacity:1;"/>
</linearGradient>
<radialGradient id="radial1" gradientUnits="userSpaceOnUse" cx="34.625" cy="31.875" fx="34.625" fy="31.875" r="23.205999" gradientTransform="matrix(0.375001,0,0,0.375001,0,0)">
<stop offset="0" style="stop-color:rgb(95.686275%,91.37255%,76.47059%);stop-opacity:1;"/>
<stop offset="0.219" style="stop-color:rgb(97.254902%,93.333334%,80.392158%);stop-opacity:1;"/>
<stop offset="0.644" style="stop-color:rgb(99.215686%,95.686275%,86.274511%);stop-opacity:1;"/>
<stop offset="1" style="stop-color:rgb(100%,96.470588%,88.235295%);stop-opacity:1;"/>
</radialGradient>
</defs>
<g id="surface28638988">
<path style=" stroke:none;fill-rule:nonzero;fill:url(#radial0);" d="M 5.4375 9.75 L 3.75 9.75 C 3.128906 9.75 2.625 10.253906 2.625 10.875 L 2.625 12.75 L 1.5 12.75 L 1.5 15 L 5.0625 15 C 5.582031 15 6 15.417969 6 15.9375 C 6 16.457031 5.582031 16.875 5.0625 16.875 L 4.96875 16.875 C 4.140625 16.875 3.46875 17.546875 3.46875 18.375 C 3.46875 19.203125 4.140625 19.875 4.96875 19.875 L 7.125 19.875 C 7.539062 19.875 7.875 20.210938 7.875 20.625 C 7.875 21.039062 7.539062 21.375 7.125 21.375 L 2.8125 21.375 C 2.085938 21.375 1.5 21.960938 1.5 22.6875 C 1.5 23.414062 2.085938 24 2.8125 24 L 19.3125 24 C 20.039062 24 20.625 23.414062 20.625 22.6875 C 20.625 21.960938 20.039062 21.375 19.3125 21.375 C 18.792969 21.375 18.375 20.957031 18.375 20.4375 C 18.375 19.917969 18.792969 19.5 19.3125 19.5 L 21 19.5 C 21.828125 19.5 22.5 18.828125 22.5 18 C 22.5 17.171875 21.828125 16.5 21 16.5 L 20.0625 16.5 C 19.335938 16.5 18.75 15.914062 18.75 15.1875 C 18.75 14.460938 19.335938 13.875 20.0625 13.875 L 22.125 13.875 C 23.160156 13.875 24 13.035156 24 12 C 24 10.964844 23.160156 10.125 22.125 10.125 L 16.125 10.125 C 15.503906 10.125 15 9.621094 15 9 C 15 8.378906 15.503906 7.875 16.125 7.875 L 16.6875 7.875 C 17.414062 7.875 18 7.289062 18 6.5625 C 18 5.835938 17.414062 5.25 16.6875 5.25 L 15.75 5.25 C 15.128906 5.25 14.625 4.746094 14.625 4.125 C 14.625 3.503906 15.128906 3 15.75 3 L 16.5 3 C 17.328125 3 18 2.328125 18 1.5 C 18 0.671875 17.328125 0 16.5 0 L 4.875 0 C 4.046875 0 3.375 0.671875 3.375 1.5 C 3.375 2.328125 4.046875 3 4.875 3 L 7.875 3 C 8.703125 3 9.375 3.671875 9.375 4.5 C 9.375 5.328125 8.703125 6 7.875 6 L 3.9375 6 C 3.417969 6 3 6.417969 3 6.9375 C 3 7.457031 3.417969 7.875 3.9375 7.875 L 5.4375 7.875 C 5.957031 7.875 6.375 8.292969 6.375 8.8125 C 6.375 9.332031 5.957031 9.75 5.4375 9.75 Z M 5.4375 9.75 "/>
<path style=" stroke:none;fill-rule:nonzero;fill:url(#linear0);" d="M 2.308594 10.964844 L 0.164062 14.6875 C 0.0898438 14.8125 0.179688 14.96875 0.324219 14.96875 L 1.359375 14.96875 C 1.496094 14.96875 1.617188 14.894531 1.6875 14.78125 L 3.796875 11.140625 Z M 2.363281 10.875 C 2.363281 10.875 2.667969 10.320312 2.972656 9.78125 C 3.105469 9.546875 3.355469 9.402344 3.625 9.402344 C 4.152344 9.402344 5.03125 9.402344 5.53125 9.402344 C 5.738281 9.402344 5.90625 9.570312 5.90625 9.777344 L 5.90625 10.757812 C 5.90625 10.757812 6.027344 10.238281 6.238281 9.992188 C 6.4375 9.757812 6.707031 9.4375 7.316406 9.394531 L 11.425781 9.394531 C 11.632812 9.394531 11.800781 9.5625 11.800781 9.769531 L 11.800781 10.503906 C 11.800781 10.710938 11.632812 10.878906 11.425781 10.878906 Z M 24 10.503906 L 24 9.769531 C 24 9.5625 23.832031 9.394531 23.625 9.394531 L 19.199219 9.394531 C 18.589844 9.4375 18.324219 9.757812 18.121094 9.992188 C 17.910156 10.238281 17.789062 10.757812 17.789062 10.757812 L 17.789062 10.875 L 23.625 10.878906 C 23.832031 10.878906 24 10.710938 24 10.503906 Z M 12.410156 9.402344 L 13.003906 9.402344 C 13.210938 9.402344 13.378906 9.570312 13.378906 9.777344 L 13.378906 10.875 L 12.035156 10.875 L 12.035156 9.777344 C 12.035156 9.570312 12.203125 9.402344 12.410156 9.402344 Z M 16.816406 9.402344 L 17.40625 9.402344 C 17.613281 9.402344 17.78125 9.570312 17.78125 9.777344 L 17.78125 10.875 L 16.441406 10.875 L 16.441406 9.777344 C 16.441406 9.570312 16.605469 9.402344 16.816406 9.402344 Z M 17.78125 11.410156 L 16.460938 11.320312 L 16.460938 13.035156 C 16.460938 13.035156 16.457031 13.527344 16.027344 13.527344 C 15.601562 13.527344 13.761719 13.527344 13.761719 13.527344 C 13.761719 13.527344 13.378906 13.492188 13.378906 13.039062 C 13.378906 12.585938 13.378906 11.089844 13.378906 11.089844 L 12.046875 10.984375 L 12.046875 13.609375 C 12.265625 14.867188 13.289062 14.964844 13.289062 14.964844 C 13.289062 14.964844 13.394531 14.972656 13.410156 14.972656 L 16.46875 14.972656 C 16.46875 14.972656 17.78125 14.859375 17.78125 13.464844 C 17.78125 12.074219 17.78125 11.410156 17.78125 11.410156 Z M 4.917969 14.96875 L 10.816406 14.96875 C 11.90625 14.726562 12.023438 13.625 12.023438 13.625 C 12.074219 13.300781 12.042969 13.035156 12.042969 13.035156 C 12.011719 12.816406 11.632812 11.84375 10.8125 11.757812 C 10.324219 11.710938 5.972656 11.324219 5.972656 11.324219 C 6.054688 11.808594 6.253906 12.054688 6.382812 12.191406 C 6.683594 12.515625 7.164062 12.605469 7.164062 12.605469 C 7.28125 12.617188 10.519531 12.914062 10.519531 12.914062 C 10.621094 12.921875 10.816406 12.949219 10.816406 13.230469 C 10.816406 13.265625 10.789062 13.515625 10.539062 13.515625 L 6.035156 13.515625 C 5.929688 13.515625 5.847656 13.433594 5.847656 13.328125 L 5.847656 11.3125 L 4.542969 11.207031 L 4.542969 14.59375 C 4.542969 14.800781 4.710938 14.96875 4.917969 14.96875 Z M 17.792969 13.882812 C 17.792969 13.675781 17.960938 13.507812 18.167969 13.507812 L 22.453125 13.507812 C 22.558594 13.507812 22.675781 13.4375 22.675781 13.4375 C 22.722656 13.386719 22.765625 13.300781 22.765625 13.214844 C 22.765625 12.933594 22.554688 12.921875 22.449219 12.914062 C 22.449219 12.914062 19.171875 12.609375 19.058594 12.601562 C 19.058594 12.601562 18.605469 12.523438 18.300781 12.199219 C 18.171875 12.0625 17.996094 11.910156 17.867188 11.414062 C 17.867188 11.414062 22.242188 11.699219 22.730469 11.75 C 23.550781 11.835938 23.9375 12.738281 23.972656 13.035156 C 23.972656 13.035156 24.003906 13.308594 23.964844 13.640625 C 23.964844 13.640625 23.792969 14.90625 22.589844 14.980469 L 18.164062 14.980469 C 17.957031 14.980469 17.789062 14.8125 17.789062 14.605469 Z M 17.792969 13.882812 "/>
<path style=" stroke:none;fill-rule:nonzero;fill:url(#radial1);" d="M 20.25 3 C 19.421875 3 18.75 2.328125 18.75 1.5 C 18.75 0.671875 19.421875 0 20.25 0 C 21.078125 0 21.75 0.671875 21.75 1.5 C 21.75 2.328125 21.078125 3 20.25 3 Z M 20.25 3 "/>
</g>
</svg>
